<svg id="Layer_1" data-name="Layer 1" xmlns="http://www.w3.org/2000/svg" viewBox="0 0 40 40"><defs><style>.cls-1{fill:#fcc003;}.cls-2{fill:#f9e1bf;}.cls-3{fill:#fcd69b;}.cls-4{fill:#fca302;}.cls-5{fill:#fe4a49;}.cls-6{fill:#fcc104;}.cls-7{fill:#fca303;}.cls-8{fill:#fcc002;}.cls-9{fill:#f23636;}.cls-10{fill:#fc9002;}.cls-11{fill:#d7aa5e;}.cls-12{fill:#c99c56;}.cls-13{fill:#e6e6ea;}</style></defs><path class="cls-1" d="M35.147,32.737c.5,0,1-.007,1.493-.013a.827.827,0,0,1,.548.186,1.018,1.018,0,0,1,.359.794v1.624a1.11,1.11,0,0,1-1.155,1.115h-.016c-.409-.024-.82-.012-1.229-.017Z"/><path class="cls-1" d="M35.147,25.283c.5,0,1-.006,1.493-.012a.821.821,0,0,1,.548.185,1.018,1.018,0,0,1,.359.794v1.624a1.11,1.11,0,0,1-1.155,1.115h-.016c-.409-.024-.82-.012-1.229-.017Z"/><path class="cls-2" d="M2.467,34.327a1.94,1.94,0,0,1,1.119-1.494A1.886,1.886,0,0,0,4.647,31.09c.01-1.256-.006-2.512.006-3.768A17.092,17.092,0,0,1,6.1,20.6a18.49,18.49,0,0,1,6.456-7.741.889.889,0,0,0,.121-.117,2.746,2.746,0,0,0,.4.062c1.076,0,2.153,0,3.229,0,.707.018,1.414.034,2.12-.014a4.119,4.119,0,0,0,.6.649A17.661,17.661,0,0,1,20.874,15.8a16.977,16.977,0,0,1,2.119,4.565,16.122,16.122,0,0,1,.7,4.08c.05,1.768.033,3.538,0,5.307a5.461,5.461,0,0,1-.893,2.968,3.558,3.558,0,0,1-3.143,1.6Q11.063,34.335,2.467,34.327ZM20.351,21.163l-.072-.081a6.114,6.114,0,0,0-5.194-2.054,6.01,6.01,0,0,0-3.876,1.73,6.356,6.356,0,0,0,.155,9.32.985.985,0,0,0,.113.127,6.327,6.327,0,0,0,4.9,1.454A6.078,6.078,0,0,0,20.2,29.74a6.191,6.191,0,0,0,1.576-5.9,5.432,5.432,0,0,0-1.428-2.676Z"/><path class="cls-3" d="M2.467,34.327q8.6,0,17.192-.009a3.558,3.558,0,0,0,3.143-1.6,5.461,5.461,0,0,0,.893-2.968c.029-1.769.046-3.539,0-5.307a16.122,16.122,0,0,0-.7-4.08A16.977,16.977,0,0,0,20.874,15.8a17.661,17.661,0,0,0-1.848-2.359,4.119,4.119,0,0,1-.6-.649c.046-.059.115-.054.178-.064.479.4,1.008.735,1.49,1.136a18.351,18.351,0,0,1,4.1,4.849,26.043,26.043,0,0,1,1.362,2.864c.137.476.272.952.411,1.428.219.746.315,1.519.478,2.277.112,1.231.156,2.465.149,3.7,0,.77-.04,1.543,0,2.311a1.605,1.605,0,0,0,.937,1.461l.343.218a1.806,1.806,0,0,1,.839,1.9,1.928,1.928,0,0,1-1.429,1.569c-.262,0-.524.011-.786.011-7.338,0-14.675-.011-22.012.011A1.926,1.926,0,0,1,2.467,34.327Z"/><path class="cls-4" d="M27.529,32.75a1.605,1.605,0,0,1-.937-1.461c-.041-.768,0-1.541,0-2.311.593,0,1.187-.015,1.779.006.282.01.345-.092.342-.353-.013-1.118-.006-2.236-.007-3.354l0,0H29.8l0,0c0,1.116.008,2.231-.008,3.347,0,.289.088.38.368.358a5.52,5.52,0,0,1,.853,0c.28.022.373-.069.368-.358-.016-1.116-.007-2.231-.007-3.347l0,0h1.094l0,0c0,1.131.005,2.261-.005,3.391,0,.237.068.316.309.316a3.558,3.558,0,0,1,1.089.052c.164.05.192-.029.19-.2-.011-1.165,0-2.329,0-3.494.074,0,.153.012.2-.066l.891.014v3.682h-.872a1.2,1.2,0,0,1,.608,1.252c-.025.489-.013.981,0,1.47a.96.96,0,0,1-.485.915,1.231,1.231,0,0,1-.5.086c-.361.016-.722.053-1.081.04-.275-.01-.347.084-.344.349.013,1.113,0,2.226,0,3.338H31.38c0-1.09-.013-2.18.006-3.27.006-.324-.079-.428-.412-.421a3.066,3.066,0,0,1-1.172-.056q0-1.434,0-2.869c0-.777,0-.767-.77-.771-.252,0-.335.068-.332.327.013,1.1,0,2.208,0,3.313A4.739,4.739,0,0,1,27.529,32.75Zm3.85-1.879V31.9c0,.8,0,.789.789.786.237,0,.315-.071.312-.311-.012-.854,0-1.709,0-2.563,0-.788,0-.781-.806-.769-.222,0-.3.069-.294.294C31.388,29.846,31.379,30.359,31.379,30.871Z"/><path class="cls-2" d="M13.149,10.053Q11.9,8.481,10.646,6.91a.947.947,0,0,1,.03-1.331c.431-.5.839-1.017,1.3-1.492a1.683,1.683,0,0,1,2.572.151,1.211,1.211,0,0,0,2.137-.017c.083-.109.14-.239.3-.259a15.222,15.222,0,0,1,1.5,1.745.857.857,0,0,1-.036,1.209c-.847,1.048-1.7,2.091-2.552,3.136Z"/><path class="cls-3" d="M15.893,10.052c.851-1.045,1.7-2.088,2.552-3.136a.857.857,0,0,0,.036-1.209,15.222,15.222,0,0,0-1.5-1.745,1.583,1.583,0,0,1,2.188.044,20.308,20.308,0,0,1,1.483,1.735.865.865,0,0,1-.07,1.159c-.595.746-1.2,1.485-1.8,2.227-.25.309-.5.617-.753.925l-1.786.023Z"/><path class="cls-5" d="M15.893,10.052l.345.023a1.506,1.506,0,0,1,.957.854A1.433,1.433,0,0,1,16.3,12.8c-1.076,0-2.153.006-3.229,0a2.746,2.746,0,0,1-.4-.062,1.428,1.428,0,0,1-.886-1.27,1.4,1.4,0,0,1,1.361-1.419Z"/><path class="cls-6" d="M27.529,32.75a4.739,4.739,0,0,0,1.177-.071h1.1a3.066,3.066,0,0,0,1.172.056c.333-.007.418.1.412.421-.019,1.09-.006,2.18-.006,3.27l-4.1.008a1.928,1.928,0,0,0,1.429-1.569,1.806,1.806,0,0,0-.839-1.9Z"/><path class="cls-7" d="M26.442,25.277c-.163-.758-.259-1.531-.478-2.277-.139-.476-.274-.952-.411-1.428l3.154.012v3.691l0,0Z"/><path class="cls-7" d="M34.256,25.279c-.049.078-.128.064-.2.066-.089-.1-.21-.066-.319-.067-.42,0-.839,0-1.259,0l0,0q0-1.845,0-3.691c.513,0,1.027-.023,1.54-.008a.859.859,0,0,1,.859.884c.012.639,0,1.279,0,1.919A1.045,1.045,0,0,1,34.256,25.279Z"/><path class="cls-8" d="M32.474,36.425c0-1.112.008-2.225,0-3.338,0-.265.069-.359.344-.349.359.013.72-.024,1.08-.04l.158.038v3.691Z"/><path class="cls-4" d="M29.8,21.584h1.577v3.691l0,0H29.8l0,0Z"/><path class="cls-9" d="M16.3,12.8a1.433,1.433,0,0,0,.892-1.872,1.506,1.506,0,0,0-.957-.854l1.786-.023a1.422,1.422,0,0,1,1.344,1.014,1.445,1.445,0,0,1-.766,1.657c-.064.01-.133,0-.179.064C17.717,12.835,17.01,12.819,16.3,12.8Z"/><path class="cls-10" d="M29.8,21.584v3.691H28.707V21.584Z"/><path class="cls-10" d="M31.38,25.275V21.584h1.1q0,1.845,0,3.691Z"/><path class="cls-7" d="M34.052,36.427V32.736l.357-.02.739.021v3.688Z"/><path class="cls-11" d="M11.364,30.078a6.356,6.356,0,0,1-.155-9.32,6.01,6.01,0,0,1,3.876-1.73,6.114,6.114,0,0,1,5.194,2.054l.072.081,0,0a.815.815,0,0,0,.092.395,6.377,6.377,0,0,1,.3,2.964A6.545,6.545,0,0,1,18.122,29.1a6.744,6.744,0,0,1-6,1.155C11.871,30.192,11.653,29.972,11.364,30.078Zm3.7-3.382c0,.365-.007.73,0,1.095.006.21-.092.259-.274.228a2.027,2.027,0,0,1-.651-.29.5.5,0,0,0-.742.138.481.481,0,0,0,.2.721,2.438,2.438,0,0,0,1.158.468c.211.014.333.106.307.349a.521.521,0,0,0,.092.454.476.476,0,0,0,.514.185.546.546,0,0,0,.409-.6.444.444,0,0,1,.35-.515,2.282,2.282,0,0,0,1.374-2.7,1.892,1.892,0,0,0-1.279-1.363.542.542,0,0,1-.446-.658c.034-.351,0-.707.011-1.06,0-.165-.089-.4.049-.48s.3.1.446.189a.542.542,0,0,0,.733-.108.536.536,0,0,0-.145-.729,1.875,1.875,0,0,0-.724-.376.4.4,0,0,1-.374-.479.559.559,0,0,0-.551-.544.509.509,0,0,0-.457.573.422.422,0,0,1-.335.493,1.86,1.86,0,0,0-1.222,1.672,1.441,1.441,0,0,0,.762,1.561,1.275,1.275,0,0,1,.79,1.567A1.4,1.4,0,0,0,15.061,26.7Z"/><path class="cls-12" d="M11.364,30.078c.289-.106.507.114.757.177a6.744,6.744,0,0,0,6-1.155,6.545,6.545,0,0,0,2.614-4.582,6.377,6.377,0,0,0-.3-2.964.815.815,0,0,1-.092-.395,5.432,5.432,0,0,1,1.428,2.676,6.191,6.191,0,0,1-1.576,5.9,6.078,6.078,0,0,1-3.828,1.919,6.327,6.327,0,0,1-4.9-1.454A.985.985,0,0,1,11.364,30.078Z"/><path class="cls-12" d="M20.351,21.163l-.072-.081Z"/><path class="cls-8" d="M26.442,25.277h2.263c0,1.118-.006,2.236.007,3.354,0,.261-.06.363-.342.353-.592-.021-1.186-.006-1.779-.006C26.6,27.742,26.554,26.508,26.442,25.277Z"/><path class="cls-8" d="M32.476,25.277c.42,0,.839,0,1.259,0,.109,0,.23-.037.319.067,0,1.165-.006,2.329,0,3.494,0,.168-.026.247-.19.2a3.558,3.558,0,0,0-1.089-.052c-.241,0-.312-.079-.309-.316C32.481,27.538,32.476,26.408,32.476,25.277Z"/><path class="cls-8" d="M29.8,25.277h1.574c0,1.116-.009,2.231.007,3.347,0,.289-.088.38-.368.358a5.52,5.52,0,0,0-.853,0c-.28.022-.372-.069-.368-.358C29.812,27.508,29.8,26.393,29.8,25.277Z"/><path class="cls-10" d="M29.8,32.679h-1.1c0-1.105.008-2.209,0-3.313,0-.259.08-.328.332-.327.77,0,.77-.006.77.771Q29.8,31.244,29.8,32.679Z"/><path class="cls-10" d="M31.379,30.871c0-.512.009-1.025,0-1.537-.006-.225.072-.291.294-.294.806-.012.806-.019.806.769,0,.854-.007,1.709,0,2.563,0,.24-.075.31-.312.311-.789,0-.789.012-.789-.786Z"/><path class="cls-13" d="M15.061,26.7a1.4,1.4,0,0,1,0-.205,1.275,1.275,0,0,0-.79-1.567,1.441,1.441,0,0,1-.762-1.561,1.86,1.86,0,0,1,1.222-1.672.422.422,0,0,0,.335-.493.509.509,0,0,1,.457-.573.559.559,0,0,1,.551.544.4.4,0,0,0,.374.479,1.875,1.875,0,0,1,.724.376.536.536,0,0,1,.145.729.542.542,0,0,1-.733.108c-.144-.085-.3-.278-.446-.189s-.045.315-.049.48c-.01.353.023.709-.011,1.06a.542.542,0,0,0,.446.658,1.892,1.892,0,0,1,1.279,1.363,2.282,2.282,0,0,1-1.374,2.7.444.444,0,0,0-.35.515.546.546,0,0,1-.409.6.476.476,0,0,1-.514-.185.521.521,0,0,1-.092-.454c.026-.243-.1-.335-.307-.349a2.438,2.438,0,0,1-1.158-.468.481.481,0,0,1-.2-.721.5.5,0,0,1,.742-.138,2.027,2.027,0,0,0,.651.29c.182.031.28-.018.274-.228C15.054,27.426,15.061,27.061,15.061,26.7Zm1.027.176c0,.182-.01.365,0,.546.011.165-.086.425.053.472.186.063.316-.179.432-.321a1.1,1.1,0,0,0-.194-1.641c-.2-.112-.312-.128-.3.159C16.1,26.348,16.088,26.61,16.088,26.872Zm-1.028-4.18a.83.83,0,0,0-.231,1.412c.11.074.224.128.228-.073C15.067,23.592,15.06,23.153,15.06,22.692Z"/><path class="cls-11" d="M16.088,26.872c0-.262.011-.524,0-.785-.016-.287.1-.271.3-.159a1.1,1.1,0,0,1,.194,1.641c-.116.142-.246.384-.432.321-.139-.047-.042-.307-.053-.472C16.078,27.237,16.088,27.054,16.088,26.872Z"/><path class="cls-11" d="M15.06,22.692c0,.461.007.9,0,1.339,0,.2-.118.147-.228.073A.83.83,0,0,1,15.06,22.692Z"/></svg>